<svg id="path7" xmlns="http://www.w3.org/2000/svg" width="58" height="58" viewBox="0 0 58 58">
  <path id="path7-2" data-name="path7" d="M29.986.986a29,29,0,1,0,29,29,29.033,29.033,0,0,0-29-29Zm0,4.135A24.814,24.814,0,0,1,48.211,46.83a24.129,24.129,0,0,0-10.6-7.252A12.383,12.383,0,1,0,17.384,30.06a12.269,12.269,0,0,0,4.565,9.5A24.171,24.171,0,0,0,11.5,46.582,24.837,24.837,0,0,1,29.986,5.121Zm-.145,16.621a8.26,8.26,0,0,1,.269,16.514c-.12,0-.236-.025-.356-.025-.1,0-.2.021-.306.025a8.26,8.26,0,0,1,.4-16.514Zm-.4,20.64c.1,0,.2.033.3.033h.1c.091,0,.165-.029.256-.033A20.011,20.011,0,0,1,45.16,49.625a24.724,24.724,0,0,1-30.646-.19,20.044,20.044,0,0,1,14.93-7.054Z" transform="translate(-0.986 -0.986)" fill="#4967ff"/>
</svg>
